%TF.GenerationSoftware,KiCad,Pcbnew,9.0.0-9.0.0-2~ubuntu24.04.1*%
%TF.CreationDate,2025-03-28T20:06:40+01:00*%
%TF.ProjectId,MarstekMonitor,4d617273-7465-46b4-9d6f-6e69746f722e,rev?*%
%TF.SameCoordinates,Original*%
%TF.FileFunction,Copper,L2,Bot*%
%TF.FilePolarity,Positive*%
%FSLAX46Y46*%
G04 Gerber Fmt 4.6, Leading zero omitted, Abs format (unit mm)*
G04 Created by KiCad (PCBNEW 9.0.0-9.0.0-2~ubuntu24.04.1) date 2025-03-28 20:06:40*
%MOMM*%
%LPD*%
G01*
G04 APERTURE LIST*
G04 Aperture macros list*
%AMRoundRect*
0 Rectangle with rounded corners*
0 $1 Rounding radius*
0 $2 $3 $4 $5 $6 $7 $8 $9 X,Y pos of 4 corners*
0 Add a 4 corners polygon primitive as box body*
4,1,4,$2,$3,$4,$5,$6,$7,$8,$9,$2,$3,0*
0 Add four circle primitives for the rounded corners*
1,1,$1+$1,$2,$3*
1,1,$1+$1,$4,$5*
1,1,$1+$1,$6,$7*
1,1,$1+$1,$8,$9*
0 Add four rect primitives between the rounded corners*
20,1,$1+$1,$2,$3,$4,$5,0*
20,1,$1+$1,$4,$5,$6,$7,0*
20,1,$1+$1,$6,$7,$8,$9,0*
20,1,$1+$1,$8,$9,$2,$3,0*%
G04 Aperture macros list end*
%TA.AperFunction,ComponentPad*%
%ADD10C,1.524000*%
%TD*%
%TA.AperFunction,ComponentPad*%
%ADD11RoundRect,0.250000X-0.725000X0.600000X-0.725000X-0.600000X0.725000X-0.600000X0.725000X0.600000X0*%
%TD*%
%TA.AperFunction,ComponentPad*%
%ADD12O,1.950000X1.700000*%
%TD*%
%TA.AperFunction,Conductor*%
%ADD13C,0.200000*%
%TD*%
G04 APERTURE END LIST*
D10*
%TO.P,RS485_TTL_Board1,1,VCC*%
%TO.N,+5V*%
X141500000Y-74765000D03*
%TO.P,RS485_TTL_Board1,2,TXD*%
%TO.N,/TXD*%
X141500000Y-77305000D03*
%TO.P,RS485_TTL_Board1,3,RXD*%
%TO.N,/RXD*%
X141500000Y-79845000D03*
%TO.P,RS485_TTL_Board1,4,GND*%
%TO.N,GND*%
X141500000Y-82385000D03*
%TO.P,RS485_TTL_Board1,5,A+*%
%TO.N,/RS485_A*%
X102000000Y-73500000D03*
%TO.P,RS485_TTL_Board1,6,B-*%
%TO.N,/RS485_B*%
X102000000Y-78580000D03*
%TO.P,RS485_TTL_Board1,7,Data_GND*%
%TO.N,GNDD*%
X102000000Y-83660000D03*
%TD*%
%TO.P,BuckBoostModuleFixed5V1,1,Vi-*%
%TO.N,GND*%
X125500000Y-72500000D03*
%TO.P,BuckBoostModuleFixed5V1,2,Vi+*%
%TO.N,VCC*%
X117500000Y-72500000D03*
%TO.P,BuckBoostModuleFixed5V1,3,Vo-*%
%TO.N,GND*%
X125500000Y-86000000D03*
%TO.P,BuckBoostModuleFixed5V1,4,Vo+*%
%TO.N,+5V*%
X117500000Y-86000000D03*
%TD*%
D11*
%TO.P,J1,1,Pin_1*%
%TO.N,/RS485_A*%
X93000000Y-73000000D03*
D12*
%TO.P,J1,2,Pin_2*%
%TO.N,/RS485_B*%
X93000000Y-75500000D03*
%TO.P,J1,3,Pin_3*%
%TO.N,GNDD*%
X93000000Y-78000000D03*
%TO.P,J1,4,Pin_4*%
%TO.N,unconnected-(J1-Pin_4-Pad4)*%
X93000000Y-80500000D03*
%TO.P,J1,5,Pin_5*%
%TO.N,VCC*%
X93000000Y-83000000D03*
%TO.P,J1,6,Pin_6*%
%TO.N,GND*%
X93000000Y-85500000D03*
%TD*%
D10*
%TO.P,TTGO1,24,3.3V*%
%TO.N,unconnected-(TTGO1-3.3V-Pad24)*%
X116500000Y-67500000D03*
%TO.P,TTGO1,23,GND*%
%TO.N,GND*%
X119040000Y-67500000D03*
%TO.P,TTGO1,22,GND*%
X121580000Y-67500000D03*
%TO.P,TTGO1,21,GPIO12*%
%TO.N,/RXD*%
X124120000Y-67500000D03*
%TO.P,TTGO1,20,GPIO13*%
%TO.N,/TXD*%
X126660000Y-67500000D03*
%TO.P,TTGO1,19,GPIO15*%
%TO.N,unconnected-(TTGO1-GPIO15-Pad19)*%
X129200000Y-67500000D03*
%TO.P,TTGO1,18,GPIO2*%
%TO.N,unconnected-(TTGO1-GPIO2-Pad18)*%
X131740000Y-67500000D03*
%TO.P,TTGO1,17,GPIO17*%
%TO.N,unconnected-(TTGO1-GPIO17-Pad17)*%
X134280000Y-67500000D03*
%TO.P,TTGO1,16,GPIO22*%
%TO.N,unconnected-(TTGO1-GPIO22-Pad16)*%
X136820000Y-67500000D03*
%TO.P,TTGO1,15,GPIO21*%
%TO.N,unconnected-(TTGO1-GPIO21-Pad15)*%
X139360000Y-67500000D03*
%TO.P,TTGO1,14,GND*%
%TO.N,GND*%
X141900000Y-67500000D03*
%TO.P,TTGO1,13,GND*%
X144440000Y-67500000D03*
%TO.P,TTGO1,12,3.3V*%
%TO.N,unconnected-(TTGO1-3.3V-Pad12)*%
X144440000Y-90360000D03*
%TO.P,TTGO1,11,SVP*%
%TO.N,unconnected-(TTGO1-SVP-Pad11)*%
X141900000Y-90360000D03*
%TO.P,TTGO1,10,GPIO37*%
%TO.N,unconnected-(TTGO1-GPIO37-Pad10)*%
X139360000Y-90360000D03*
%TO.P,TTGO1,9,GPIO38*%
%TO.N,unconnected-(TTGO1-GPIO38-Pad9)*%
X136820000Y-90360000D03*
%TO.P,TTGO1,8,SVN*%
%TO.N,unconnected-(TTGO1-SVN-Pad8)*%
X134280000Y-90360000D03*
%TO.P,TTGO1,7,GPIO32*%
%TO.N,unconnected-(TTGO1-GPIO32-Pad7)*%
X131740000Y-90360000D03*
%TO.P,TTGO1,6,GPIO33*%
%TO.N,unconnected-(TTGO1-GPIO33-Pad6)*%
X129200000Y-90360000D03*
%TO.P,TTGO1,5,GPIO25*%
%TO.N,unconnected-(TTGO1-GPIO25-Pad5)*%
X126660000Y-90360000D03*
%TO.P,TTGO1,4,GPIO26*%
%TO.N,unconnected-(TTGO1-GPIO26-Pad4)*%
X124120000Y-90360000D03*
%TO.P,TTGO1,3,GPIO27*%
%TO.N,unconnected-(TTGO1-GPIO27-Pad3)*%
X121580000Y-90360000D03*
%TO.P,TTGO1,2,GND*%
%TO.N,GND*%
X119040000Y-90360000D03*
%TO.P,TTGO1,1,5V*%
%TO.N,+5V*%
X116500000Y-90360000D03*
%TD*%
D13*
%TO.N,+5V*%
X141500000Y-74765000D02*
X128735000Y-74765000D01*
X128735000Y-74765000D02*
X117500000Y-86000000D01*
%TO.N,VCC*%
X93000000Y-83000000D02*
X95500000Y-83000000D01*
X95500000Y-83000000D02*
X106000000Y-72500000D01*
X106000000Y-72500000D02*
X117500000Y-72500000D01*
%TO.N,+5V*%
X141235000Y-74500000D02*
X141500000Y-74765000D01*
%TD*%
M02*
