%TF.GenerationSoftware,KiCad,Pcbnew,9.0.0-9.0.0-2~ubuntu24.04.1*%
%TF.CreationDate,2025-03-28T20:08:04+01:00*%
%TF.ProjectId,MarstekMonitor,4d617273-7465-46b4-9d6f-6e69746f722e,rev?*%
%TF.SameCoordinates,Original*%
%TF.FileFunction,Drillmap*%
%TF.FilePolarity,Positive*%
%FSLAX45Y45*%
G04 Gerber Fmt 4.5, Leading zero omitted, Abs format (unit mm)*
G04 Created by KiCad (PCBNEW 9.0.0-9.0.0-2~ubuntu24.04.1) date 2025-03-28 20:08:04*
%MOMM*%
%LPD*%
G01*
G04 APERTURE LIST*
%ADD10C,0.050000*%
%ADD11C,0.200000*%
%ADD12C,0.100000*%
G04 APERTURE END LIST*
D10*
X8700000Y-6250000D02*
X15700000Y-6250000D01*
X15700000Y-9600000D01*
X8700000Y-9600000D01*
X8700000Y-6250000D01*
D11*
D12*
X10161900Y-7311900D02*
X10238100Y-7388100D01*
X10238100Y-7311900D02*
X10161900Y-7388100D01*
X10161900Y-7819900D02*
X10238100Y-7896100D01*
X10238100Y-7819900D02*
X10161900Y-7896100D01*
X10161900Y-8327900D02*
X10238100Y-8404100D01*
X10238100Y-8327900D02*
X10161900Y-8404100D01*
X11611900Y-6711900D02*
X11688100Y-6788100D01*
X11688100Y-6711900D02*
X11611900Y-6788100D01*
X11611900Y-8997900D02*
X11688100Y-9074100D01*
X11688100Y-8997900D02*
X11611900Y-9074100D01*
X11711900Y-7211900D02*
X11788100Y-7288100D01*
X11788100Y-7211900D02*
X11711900Y-7288100D01*
X11711900Y-8561900D02*
X11788100Y-8638100D01*
X11788100Y-8561900D02*
X11711900Y-8638100D01*
X11865900Y-6711900D02*
X11942100Y-6788100D01*
X11942100Y-6711900D02*
X11865900Y-6788100D01*
X11865900Y-8997900D02*
X11942100Y-9074100D01*
X11942100Y-8997900D02*
X11865900Y-9074100D01*
X12119900Y-6711900D02*
X12196100Y-6788100D01*
X12196100Y-6711900D02*
X12119900Y-6788100D01*
X12119900Y-8997900D02*
X12196100Y-9074100D01*
X12196100Y-8997900D02*
X12119900Y-9074100D01*
X12373900Y-6711900D02*
X12450100Y-6788100D01*
X12450100Y-6711900D02*
X12373900Y-6788100D01*
X12373900Y-8997900D02*
X12450100Y-9074100D01*
X12450100Y-8997900D02*
X12373900Y-9074100D01*
X12511900Y-7211900D02*
X12588100Y-7288100D01*
X12588100Y-7211900D02*
X12511900Y-7288100D01*
X12511900Y-8561900D02*
X12588100Y-8638100D01*
X12588100Y-8561900D02*
X12511900Y-8638100D01*
X12627900Y-6711900D02*
X12704100Y-6788100D01*
X12704100Y-6711900D02*
X12627900Y-6788100D01*
X12627900Y-8997900D02*
X12704100Y-9074100D01*
X12704100Y-8997900D02*
X12627900Y-9074100D01*
X12881900Y-6711900D02*
X12958100Y-6788100D01*
X12958100Y-6711900D02*
X12881900Y-6788100D01*
X12881900Y-8997900D02*
X12958100Y-9074100D01*
X12958100Y-8997900D02*
X12881900Y-9074100D01*
X13135900Y-6711900D02*
X13212100Y-6788100D01*
X13212100Y-6711900D02*
X13135900Y-6788100D01*
X13135900Y-8997900D02*
X13212100Y-9074100D01*
X13212100Y-8997900D02*
X13135900Y-9074100D01*
X13389900Y-6711900D02*
X13466100Y-6788100D01*
X13466100Y-6711900D02*
X13389900Y-6788100D01*
X13389900Y-8997900D02*
X13466100Y-9074100D01*
X13466100Y-8997900D02*
X13389900Y-9074100D01*
X13643900Y-6711900D02*
X13720100Y-6788100D01*
X13720100Y-6711900D02*
X13643900Y-6788100D01*
X13643900Y-8997900D02*
X13720100Y-9074100D01*
X13720100Y-8997900D02*
X13643900Y-9074100D01*
X13897900Y-6711900D02*
X13974100Y-6788100D01*
X13974100Y-6711900D02*
X13897900Y-6788100D01*
X13897900Y-8997900D02*
X13974100Y-9074100D01*
X13974100Y-8997900D02*
X13897900Y-9074100D01*
X14111900Y-7438400D02*
X14188100Y-7514600D01*
X14188100Y-7438400D02*
X14111900Y-7514600D01*
X14111900Y-7692400D02*
X14188100Y-7768600D01*
X14188100Y-7692400D02*
X14111900Y-7768600D01*
X14111900Y-7946400D02*
X14188100Y-8022600D01*
X14188100Y-7946400D02*
X14111900Y-8022600D01*
X14111900Y-8200400D02*
X14188100Y-8276600D01*
X14188100Y-8200400D02*
X14111900Y-8276600D01*
X14151900Y-6711900D02*
X14228100Y-6788100D01*
X14228100Y-6711900D02*
X14151900Y-6788100D01*
X14151900Y-8997900D02*
X14228100Y-9074100D01*
X14228100Y-8997900D02*
X14151900Y-9074100D01*
X14405900Y-6711900D02*
X14482100Y-6788100D01*
X14482100Y-6711900D02*
X14405900Y-6788100D01*
X14405900Y-8997900D02*
X14482100Y-9074100D01*
X14482100Y-8997900D02*
X14405900Y-9074100D01*
X9347500Y-7300000D02*
G75*
G02*
X9252500Y-7300000I-47500J0D01*
G01*
X9252500Y-7300000D02*
G75*
G02*
X9347500Y-7300000I47500J0D01*
G01*
X9347500Y-7550000D02*
G75*
G02*
X9252500Y-7550000I-47500J0D01*
G01*
X9252500Y-7550000D02*
G75*
G02*
X9347500Y-7550000I47500J0D01*
G01*
X9347500Y-7800000D02*
G75*
G02*
X9252500Y-7800000I-47500J0D01*
G01*
X9252500Y-7800000D02*
G75*
G02*
X9347500Y-7800000I47500J0D01*
G01*
X9347500Y-8050000D02*
G75*
G02*
X9252500Y-8050000I-47500J0D01*
G01*
X9252500Y-8050000D02*
G75*
G02*
X9347500Y-8050000I47500J0D01*
G01*
X9347500Y-8300000D02*
G75*
G02*
X9252500Y-8300000I-47500J0D01*
G01*
X9252500Y-8300000D02*
G75*
G02*
X9347500Y-8300000I47500J0D01*
G01*
X9347500Y-8550000D02*
G75*
G02*
X9252500Y-8550000I-47500J0D01*
G01*
X9252500Y-8550000D02*
G75*
G02*
X9347500Y-8550000I47500J0D01*
G01*
D11*
X8958277Y-9913984D02*
X8958277Y-9713984D01*
X8958277Y-9713984D02*
X9005896Y-9713984D01*
X9005896Y-9713984D02*
X9034467Y-9723508D01*
X9034467Y-9723508D02*
X9053515Y-9742555D01*
X9053515Y-9742555D02*
X9063039Y-9761603D01*
X9063039Y-9761603D02*
X9072563Y-9799698D01*
X9072563Y-9799698D02*
X9072563Y-9828270D01*
X9072563Y-9828270D02*
X9063039Y-9866365D01*
X9063039Y-9866365D02*
X9053515Y-9885412D01*
X9053515Y-9885412D02*
X9034467Y-9904460D01*
X9034467Y-9904460D02*
X9005896Y-9913984D01*
X9005896Y-9913984D02*
X8958277Y-9913984D01*
X9158277Y-9913984D02*
X9158277Y-9780650D01*
X9158277Y-9818746D02*
X9167801Y-9799698D01*
X9167801Y-9799698D02*
X9177324Y-9790174D01*
X9177324Y-9790174D02*
X9196372Y-9780650D01*
X9196372Y-9780650D02*
X9215420Y-9780650D01*
X9282086Y-9913984D02*
X9282086Y-9780650D01*
X9282086Y-9713984D02*
X9272563Y-9723508D01*
X9272563Y-9723508D02*
X9282086Y-9733031D01*
X9282086Y-9733031D02*
X9291610Y-9723508D01*
X9291610Y-9723508D02*
X9282086Y-9713984D01*
X9282086Y-9713984D02*
X9282086Y-9733031D01*
X9405896Y-9913984D02*
X9386848Y-9904460D01*
X9386848Y-9904460D02*
X9377324Y-9885412D01*
X9377324Y-9885412D02*
X9377324Y-9713984D01*
X9510658Y-9913984D02*
X9491610Y-9904460D01*
X9491610Y-9904460D02*
X9482086Y-9885412D01*
X9482086Y-9885412D02*
X9482086Y-9713984D01*
X9739229Y-9913984D02*
X9739229Y-9713984D01*
X9739229Y-9713984D02*
X9805896Y-9856841D01*
X9805896Y-9856841D02*
X9872563Y-9713984D01*
X9872563Y-9713984D02*
X9872563Y-9913984D01*
X10053515Y-9913984D02*
X10053515Y-9809222D01*
X10053515Y-9809222D02*
X10043991Y-9790174D01*
X10043991Y-9790174D02*
X10024944Y-9780650D01*
X10024944Y-9780650D02*
X9986848Y-9780650D01*
X9986848Y-9780650D02*
X9967801Y-9790174D01*
X10053515Y-9904460D02*
X10034467Y-9913984D01*
X10034467Y-9913984D02*
X9986848Y-9913984D01*
X9986848Y-9913984D02*
X9967801Y-9904460D01*
X9967801Y-9904460D02*
X9958277Y-9885412D01*
X9958277Y-9885412D02*
X9958277Y-9866365D01*
X9958277Y-9866365D02*
X9967801Y-9847317D01*
X9967801Y-9847317D02*
X9986848Y-9837793D01*
X9986848Y-9837793D02*
X10034467Y-9837793D01*
X10034467Y-9837793D02*
X10053515Y-9828270D01*
X10148753Y-9780650D02*
X10148753Y-9980650D01*
X10148753Y-9790174D02*
X10167801Y-9780650D01*
X10167801Y-9780650D02*
X10205896Y-9780650D01*
X10205896Y-9780650D02*
X10224944Y-9790174D01*
X10224944Y-9790174D02*
X10234467Y-9799698D01*
X10234467Y-9799698D02*
X10243991Y-9818746D01*
X10243991Y-9818746D02*
X10243991Y-9875889D01*
X10243991Y-9875889D02*
X10234467Y-9894936D01*
X10234467Y-9894936D02*
X10224944Y-9904460D01*
X10224944Y-9904460D02*
X10205896Y-9913984D01*
X10205896Y-9913984D02*
X10167801Y-9913984D01*
X10167801Y-9913984D02*
X10148753Y-9904460D01*
X10329705Y-9894936D02*
X10339229Y-9904460D01*
X10339229Y-9904460D02*
X10329705Y-9913984D01*
X10329705Y-9913984D02*
X10320182Y-9904460D01*
X10320182Y-9904460D02*
X10329705Y-9894936D01*
X10329705Y-9894936D02*
X10329705Y-9913984D01*
X10329705Y-9790174D02*
X10339229Y-9799698D01*
X10339229Y-9799698D02*
X10329705Y-9809222D01*
X10329705Y-9809222D02*
X10320182Y-9799698D01*
X10320182Y-9799698D02*
X10329705Y-9790174D01*
X10329705Y-9790174D02*
X10329705Y-9809222D01*
D12*
X8621300Y-10204400D02*
X8697500Y-10280600D01*
X8697500Y-10204400D02*
X8621300Y-10280600D01*
D11*
X8996372Y-10133984D02*
X9015420Y-10133984D01*
X9015420Y-10133984D02*
X9034467Y-10143508D01*
X9034467Y-10143508D02*
X9043991Y-10153031D01*
X9043991Y-10153031D02*
X9053515Y-10172079D01*
X9053515Y-10172079D02*
X9063039Y-10210174D01*
X9063039Y-10210174D02*
X9063039Y-10257793D01*
X9063039Y-10257793D02*
X9053515Y-10295889D01*
X9053515Y-10295889D02*
X9043991Y-10314936D01*
X9043991Y-10314936D02*
X9034467Y-10324460D01*
X9034467Y-10324460D02*
X9015420Y-10333984D01*
X9015420Y-10333984D02*
X8996372Y-10333984D01*
X8996372Y-10333984D02*
X8977324Y-10324460D01*
X8977324Y-10324460D02*
X8967801Y-10314936D01*
X8967801Y-10314936D02*
X8958277Y-10295889D01*
X8958277Y-10295889D02*
X8948753Y-10257793D01*
X8948753Y-10257793D02*
X8948753Y-10210174D01*
X8948753Y-10210174D02*
X8958277Y-10172079D01*
X8958277Y-10172079D02*
X8967801Y-10153031D01*
X8967801Y-10153031D02*
X8977324Y-10143508D01*
X8977324Y-10143508D02*
X8996372Y-10133984D01*
X9148753Y-10314936D02*
X9158277Y-10324460D01*
X9158277Y-10324460D02*
X9148753Y-10333984D01*
X9148753Y-10333984D02*
X9139229Y-10324460D01*
X9139229Y-10324460D02*
X9148753Y-10314936D01*
X9148753Y-10314936D02*
X9148753Y-10333984D01*
X9224944Y-10133984D02*
X9358277Y-10133984D01*
X9358277Y-10133984D02*
X9272563Y-10333984D01*
X9520182Y-10133984D02*
X9482086Y-10133984D01*
X9482086Y-10133984D02*
X9463039Y-10143508D01*
X9463039Y-10143508D02*
X9453515Y-10153031D01*
X9453515Y-10153031D02*
X9434467Y-10181603D01*
X9434467Y-10181603D02*
X9424944Y-10219698D01*
X9424944Y-10219698D02*
X9424944Y-10295889D01*
X9424944Y-10295889D02*
X9434467Y-10314936D01*
X9434467Y-10314936D02*
X9443991Y-10324460D01*
X9443991Y-10324460D02*
X9463039Y-10333984D01*
X9463039Y-10333984D02*
X9501134Y-10333984D01*
X9501134Y-10333984D02*
X9520182Y-10324460D01*
X9520182Y-10324460D02*
X9529705Y-10314936D01*
X9529705Y-10314936D02*
X9539229Y-10295889D01*
X9539229Y-10295889D02*
X9539229Y-10248270D01*
X9539229Y-10248270D02*
X9529705Y-10229222D01*
X9529705Y-10229222D02*
X9520182Y-10219698D01*
X9520182Y-10219698D02*
X9501134Y-10210174D01*
X9501134Y-10210174D02*
X9463039Y-10210174D01*
X9463039Y-10210174D02*
X9443991Y-10219698D01*
X9443991Y-10219698D02*
X9434467Y-10229222D01*
X9434467Y-10229222D02*
X9424944Y-10248270D01*
X9615420Y-10153031D02*
X9624944Y-10143508D01*
X9624944Y-10143508D02*
X9643991Y-10133984D01*
X9643991Y-10133984D02*
X9691610Y-10133984D01*
X9691610Y-10133984D02*
X9710658Y-10143508D01*
X9710658Y-10143508D02*
X9720182Y-10153031D01*
X9720182Y-10153031D02*
X9729705Y-10172079D01*
X9729705Y-10172079D02*
X9729705Y-10191127D01*
X9729705Y-10191127D02*
X9720182Y-10219698D01*
X9720182Y-10219698D02*
X9605896Y-10333984D01*
X9605896Y-10333984D02*
X9729705Y-10333984D01*
X9815420Y-10333984D02*
X9815420Y-10200650D01*
X9815420Y-10219698D02*
X9824944Y-10210174D01*
X9824944Y-10210174D02*
X9843991Y-10200650D01*
X9843991Y-10200650D02*
X9872563Y-10200650D01*
X9872563Y-10200650D02*
X9891610Y-10210174D01*
X9891610Y-10210174D02*
X9901134Y-10229222D01*
X9901134Y-10229222D02*
X9901134Y-10333984D01*
X9901134Y-10229222D02*
X9910658Y-10210174D01*
X9910658Y-10210174D02*
X9929705Y-10200650D01*
X9929705Y-10200650D02*
X9958277Y-10200650D01*
X9958277Y-10200650D02*
X9977325Y-10210174D01*
X9977325Y-10210174D02*
X9986848Y-10229222D01*
X9986848Y-10229222D02*
X9986848Y-10333984D01*
X10082086Y-10333984D02*
X10082086Y-10200650D01*
X10082086Y-10219698D02*
X10091610Y-10210174D01*
X10091610Y-10210174D02*
X10110658Y-10200650D01*
X10110658Y-10200650D02*
X10139229Y-10200650D01*
X10139229Y-10200650D02*
X10158277Y-10210174D01*
X10158277Y-10210174D02*
X10167801Y-10229222D01*
X10167801Y-10229222D02*
X10167801Y-10333984D01*
X10167801Y-10229222D02*
X10177325Y-10210174D01*
X10177325Y-10210174D02*
X10196372Y-10200650D01*
X10196372Y-10200650D02*
X10224944Y-10200650D01*
X10224944Y-10200650D02*
X10243991Y-10210174D01*
X10243991Y-10210174D02*
X10253515Y-10229222D01*
X10253515Y-10229222D02*
X10253515Y-10333984D01*
X10643991Y-10124460D02*
X10472563Y-10381603D01*
X10901134Y-10133984D02*
X10920182Y-10133984D01*
X10920182Y-10133984D02*
X10939229Y-10143508D01*
X10939229Y-10143508D02*
X10948753Y-10153031D01*
X10948753Y-10153031D02*
X10958277Y-10172079D01*
X10958277Y-10172079D02*
X10967801Y-10210174D01*
X10967801Y-10210174D02*
X10967801Y-10257793D01*
X10967801Y-10257793D02*
X10958277Y-10295889D01*
X10958277Y-10295889D02*
X10948753Y-10314936D01*
X10948753Y-10314936D02*
X10939229Y-10324460D01*
X10939229Y-10324460D02*
X10920182Y-10333984D01*
X10920182Y-10333984D02*
X10901134Y-10333984D01*
X10901134Y-10333984D02*
X10882087Y-10324460D01*
X10882087Y-10324460D02*
X10872563Y-10314936D01*
X10872563Y-10314936D02*
X10863039Y-10295889D01*
X10863039Y-10295889D02*
X10853515Y-10257793D01*
X10853515Y-10257793D02*
X10853515Y-10210174D01*
X10853515Y-10210174D02*
X10863039Y-10172079D01*
X10863039Y-10172079D02*
X10872563Y-10153031D01*
X10872563Y-10153031D02*
X10882087Y-10143508D01*
X10882087Y-10143508D02*
X10901134Y-10133984D01*
X11053515Y-10314936D02*
X11063039Y-10324460D01*
X11063039Y-10324460D02*
X11053515Y-10333984D01*
X11053515Y-10333984D02*
X11043991Y-10324460D01*
X11043991Y-10324460D02*
X11053515Y-10314936D01*
X11053515Y-10314936D02*
X11053515Y-10333984D01*
X11186848Y-10133984D02*
X11205896Y-10133984D01*
X11205896Y-10133984D02*
X11224944Y-10143508D01*
X11224944Y-10143508D02*
X11234467Y-10153031D01*
X11234467Y-10153031D02*
X11243991Y-10172079D01*
X11243991Y-10172079D02*
X11253515Y-10210174D01*
X11253515Y-10210174D02*
X11253515Y-10257793D01*
X11253515Y-10257793D02*
X11243991Y-10295889D01*
X11243991Y-10295889D02*
X11234467Y-10314936D01*
X11234467Y-10314936D02*
X11224944Y-10324460D01*
X11224944Y-10324460D02*
X11205896Y-10333984D01*
X11205896Y-10333984D02*
X11186848Y-10333984D01*
X11186848Y-10333984D02*
X11167801Y-10324460D01*
X11167801Y-10324460D02*
X11158277Y-10314936D01*
X11158277Y-10314936D02*
X11148753Y-10295889D01*
X11148753Y-10295889D02*
X11139229Y-10257793D01*
X11139229Y-10257793D02*
X11139229Y-10210174D01*
X11139229Y-10210174D02*
X11148753Y-10172079D01*
X11148753Y-10172079D02*
X11158277Y-10153031D01*
X11158277Y-10153031D02*
X11167801Y-10143508D01*
X11167801Y-10143508D02*
X11186848Y-10133984D01*
X11320182Y-10133984D02*
X11443991Y-10133984D01*
X11443991Y-10133984D02*
X11377325Y-10210174D01*
X11377325Y-10210174D02*
X11405896Y-10210174D01*
X11405896Y-10210174D02*
X11424944Y-10219698D01*
X11424944Y-10219698D02*
X11434467Y-10229222D01*
X11434467Y-10229222D02*
X11443991Y-10248270D01*
X11443991Y-10248270D02*
X11443991Y-10295889D01*
X11443991Y-10295889D02*
X11434467Y-10314936D01*
X11434467Y-10314936D02*
X11424944Y-10324460D01*
X11424944Y-10324460D02*
X11405896Y-10333984D01*
X11405896Y-10333984D02*
X11348753Y-10333984D01*
X11348753Y-10333984D02*
X11329706Y-10324460D01*
X11329706Y-10324460D02*
X11320182Y-10314936D01*
X11567801Y-10133984D02*
X11586848Y-10133984D01*
X11586848Y-10133984D02*
X11605896Y-10143508D01*
X11605896Y-10143508D02*
X11615420Y-10153031D01*
X11615420Y-10153031D02*
X11624944Y-10172079D01*
X11624944Y-10172079D02*
X11634467Y-10210174D01*
X11634467Y-10210174D02*
X11634467Y-10257793D01*
X11634467Y-10257793D02*
X11624944Y-10295889D01*
X11624944Y-10295889D02*
X11615420Y-10314936D01*
X11615420Y-10314936D02*
X11605896Y-10324460D01*
X11605896Y-10324460D02*
X11586848Y-10333984D01*
X11586848Y-10333984D02*
X11567801Y-10333984D01*
X11567801Y-10333984D02*
X11548753Y-10324460D01*
X11548753Y-10324460D02*
X11539229Y-10314936D01*
X11539229Y-10314936D02*
X11529706Y-10295889D01*
X11529706Y-10295889D02*
X11520182Y-10257793D01*
X11520182Y-10257793D02*
X11520182Y-10210174D01*
X11520182Y-10210174D02*
X11529706Y-10172079D01*
X11529706Y-10172079D02*
X11539229Y-10153031D01*
X11539229Y-10153031D02*
X11548753Y-10143508D01*
X11548753Y-10143508D02*
X11567801Y-10133984D01*
X11758277Y-10133984D02*
X11777325Y-10133984D01*
X11777325Y-10133984D02*
X11796372Y-10143508D01*
X11796372Y-10143508D02*
X11805896Y-10153031D01*
X11805896Y-10153031D02*
X11815420Y-10172079D01*
X11815420Y-10172079D02*
X11824944Y-10210174D01*
X11824944Y-10210174D02*
X11824944Y-10257793D01*
X11824944Y-10257793D02*
X11815420Y-10295889D01*
X11815420Y-10295889D02*
X11805896Y-10314936D01*
X11805896Y-10314936D02*
X11796372Y-10324460D01*
X11796372Y-10324460D02*
X11777325Y-10333984D01*
X11777325Y-10333984D02*
X11758277Y-10333984D01*
X11758277Y-10333984D02*
X11739229Y-10324460D01*
X11739229Y-10324460D02*
X11729706Y-10314936D01*
X11729706Y-10314936D02*
X11720182Y-10295889D01*
X11720182Y-10295889D02*
X11710658Y-10257793D01*
X11710658Y-10257793D02*
X11710658Y-10210174D01*
X11710658Y-10210174D02*
X11720182Y-10172079D01*
X11720182Y-10172079D02*
X11729706Y-10153031D01*
X11729706Y-10153031D02*
X11739229Y-10143508D01*
X11739229Y-10143508D02*
X11758277Y-10133984D01*
X11901134Y-10133984D02*
X11901134Y-10172079D01*
X11977325Y-10133984D02*
X11977325Y-10172079D01*
X12272563Y-10410174D02*
X12263039Y-10400650D01*
X12263039Y-10400650D02*
X12243991Y-10372079D01*
X12243991Y-10372079D02*
X12234468Y-10353031D01*
X12234468Y-10353031D02*
X12224944Y-10324460D01*
X12224944Y-10324460D02*
X12215420Y-10276841D01*
X12215420Y-10276841D02*
X12215420Y-10238746D01*
X12215420Y-10238746D02*
X12224944Y-10191127D01*
X12224944Y-10191127D02*
X12234468Y-10162555D01*
X12234468Y-10162555D02*
X12243991Y-10143508D01*
X12243991Y-10143508D02*
X12263039Y-10114936D01*
X12263039Y-10114936D02*
X12272563Y-10105412D01*
X12329706Y-10133984D02*
X12453515Y-10133984D01*
X12453515Y-10133984D02*
X12386848Y-10210174D01*
X12386848Y-10210174D02*
X12415420Y-10210174D01*
X12415420Y-10210174D02*
X12434468Y-10219698D01*
X12434468Y-10219698D02*
X12443991Y-10229222D01*
X12443991Y-10229222D02*
X12453515Y-10248270D01*
X12453515Y-10248270D02*
X12453515Y-10295889D01*
X12453515Y-10295889D02*
X12443991Y-10314936D01*
X12443991Y-10314936D02*
X12434468Y-10324460D01*
X12434468Y-10324460D02*
X12415420Y-10333984D01*
X12415420Y-10333984D02*
X12358277Y-10333984D01*
X12358277Y-10333984D02*
X12339229Y-10324460D01*
X12339229Y-10324460D02*
X12329706Y-10314936D01*
X12634468Y-10133984D02*
X12539229Y-10133984D01*
X12539229Y-10133984D02*
X12529706Y-10229222D01*
X12529706Y-10229222D02*
X12539229Y-10219698D01*
X12539229Y-10219698D02*
X12558277Y-10210174D01*
X12558277Y-10210174D02*
X12605896Y-10210174D01*
X12605896Y-10210174D02*
X12624944Y-10219698D01*
X12624944Y-10219698D02*
X12634468Y-10229222D01*
X12634468Y-10229222D02*
X12643991Y-10248270D01*
X12643991Y-10248270D02*
X12643991Y-10295889D01*
X12643991Y-10295889D02*
X12634468Y-10314936D01*
X12634468Y-10314936D02*
X12624944Y-10324460D01*
X12624944Y-10324460D02*
X12605896Y-10333984D01*
X12605896Y-10333984D02*
X12558277Y-10333984D01*
X12558277Y-10333984D02*
X12539229Y-10324460D01*
X12539229Y-10324460D02*
X12529706Y-10314936D01*
X12882087Y-10333984D02*
X12882087Y-10133984D01*
X12967801Y-10333984D02*
X12967801Y-10229222D01*
X12967801Y-10229222D02*
X12958277Y-10210174D01*
X12958277Y-10210174D02*
X12939230Y-10200650D01*
X12939230Y-10200650D02*
X12910658Y-10200650D01*
X12910658Y-10200650D02*
X12891610Y-10210174D01*
X12891610Y-10210174D02*
X12882087Y-10219698D01*
X13091610Y-10333984D02*
X13072563Y-10324460D01*
X13072563Y-10324460D02*
X13063039Y-10314936D01*
X13063039Y-10314936D02*
X13053515Y-10295889D01*
X13053515Y-10295889D02*
X13053515Y-10238746D01*
X13053515Y-10238746D02*
X13063039Y-10219698D01*
X13063039Y-10219698D02*
X13072563Y-10210174D01*
X13072563Y-10210174D02*
X13091610Y-10200650D01*
X13091610Y-10200650D02*
X13120182Y-10200650D01*
X13120182Y-10200650D02*
X13139230Y-10210174D01*
X13139230Y-10210174D02*
X13148753Y-10219698D01*
X13148753Y-10219698D02*
X13158277Y-10238746D01*
X13158277Y-10238746D02*
X13158277Y-10295889D01*
X13158277Y-10295889D02*
X13148753Y-10314936D01*
X13148753Y-10314936D02*
X13139230Y-10324460D01*
X13139230Y-10324460D02*
X13120182Y-10333984D01*
X13120182Y-10333984D02*
X13091610Y-10333984D01*
X13272563Y-10333984D02*
X13253515Y-10324460D01*
X13253515Y-10324460D02*
X13243991Y-10305412D01*
X13243991Y-10305412D02*
X13243991Y-10133984D01*
X13424944Y-10324460D02*
X13405896Y-10333984D01*
X13405896Y-10333984D02*
X13367801Y-10333984D01*
X13367801Y-10333984D02*
X13348753Y-10324460D01*
X13348753Y-10324460D02*
X13339230Y-10305412D01*
X13339230Y-10305412D02*
X13339230Y-10229222D01*
X13339230Y-10229222D02*
X13348753Y-10210174D01*
X13348753Y-10210174D02*
X13367801Y-10200650D01*
X13367801Y-10200650D02*
X13405896Y-10200650D01*
X13405896Y-10200650D02*
X13424944Y-10210174D01*
X13424944Y-10210174D02*
X13434468Y-10229222D01*
X13434468Y-10229222D02*
X13434468Y-10248270D01*
X13434468Y-10248270D02*
X13339230Y-10267317D01*
X13510658Y-10324460D02*
X13529706Y-10333984D01*
X13529706Y-10333984D02*
X13567801Y-10333984D01*
X13567801Y-10333984D02*
X13586849Y-10324460D01*
X13586849Y-10324460D02*
X13596372Y-10305412D01*
X13596372Y-10305412D02*
X13596372Y-10295889D01*
X13596372Y-10295889D02*
X13586849Y-10276841D01*
X13586849Y-10276841D02*
X13567801Y-10267317D01*
X13567801Y-10267317D02*
X13539230Y-10267317D01*
X13539230Y-10267317D02*
X13520182Y-10257793D01*
X13520182Y-10257793D02*
X13510658Y-10238746D01*
X13510658Y-10238746D02*
X13510658Y-10229222D01*
X13510658Y-10229222D02*
X13520182Y-10210174D01*
X13520182Y-10210174D02*
X13539230Y-10200650D01*
X13539230Y-10200650D02*
X13567801Y-10200650D01*
X13567801Y-10200650D02*
X13586849Y-10210174D01*
X13663039Y-10410174D02*
X13672563Y-10400650D01*
X13672563Y-10400650D02*
X13691611Y-10372079D01*
X13691611Y-10372079D02*
X13701134Y-10353031D01*
X13701134Y-10353031D02*
X13710658Y-10324460D01*
X13710658Y-10324460D02*
X13720182Y-10276841D01*
X13720182Y-10276841D02*
X13720182Y-10238746D01*
X13720182Y-10238746D02*
X13710658Y-10191127D01*
X13710658Y-10191127D02*
X13701134Y-10162555D01*
X13701134Y-10162555D02*
X13691611Y-10143508D01*
X13691611Y-10143508D02*
X13672563Y-10114936D01*
X13672563Y-10114936D02*
X13663039Y-10105412D01*
D12*
X8697500Y-10506500D02*
G75*
G02*
X8602500Y-10506500I-47500J0D01*
G01*
X8602500Y-10506500D02*
G75*
G02*
X8697500Y-10506500I47500J0D01*
G01*
D11*
X8996372Y-10397984D02*
X9015420Y-10397984D01*
X9015420Y-10397984D02*
X9034467Y-10407508D01*
X9034467Y-10407508D02*
X9043991Y-10417031D01*
X9043991Y-10417031D02*
X9053515Y-10436079D01*
X9053515Y-10436079D02*
X9063039Y-10474174D01*
X9063039Y-10474174D02*
X9063039Y-10521793D01*
X9063039Y-10521793D02*
X9053515Y-10559889D01*
X9053515Y-10559889D02*
X9043991Y-10578936D01*
X9043991Y-10578936D02*
X9034467Y-10588460D01*
X9034467Y-10588460D02*
X9015420Y-10597984D01*
X9015420Y-10597984D02*
X8996372Y-10597984D01*
X8996372Y-10597984D02*
X8977324Y-10588460D01*
X8977324Y-10588460D02*
X8967801Y-10578936D01*
X8967801Y-10578936D02*
X8958277Y-10559889D01*
X8958277Y-10559889D02*
X8948753Y-10521793D01*
X8948753Y-10521793D02*
X8948753Y-10474174D01*
X8948753Y-10474174D02*
X8958277Y-10436079D01*
X8958277Y-10436079D02*
X8967801Y-10417031D01*
X8967801Y-10417031D02*
X8977324Y-10407508D01*
X8977324Y-10407508D02*
X8996372Y-10397984D01*
X9148753Y-10578936D02*
X9158277Y-10588460D01*
X9158277Y-10588460D02*
X9148753Y-10597984D01*
X9148753Y-10597984D02*
X9139229Y-10588460D01*
X9139229Y-10588460D02*
X9148753Y-10578936D01*
X9148753Y-10578936D02*
X9148753Y-10597984D01*
X9253515Y-10597984D02*
X9291610Y-10597984D01*
X9291610Y-10597984D02*
X9310658Y-10588460D01*
X9310658Y-10588460D02*
X9320182Y-10578936D01*
X9320182Y-10578936D02*
X9339229Y-10550365D01*
X9339229Y-10550365D02*
X9348753Y-10512270D01*
X9348753Y-10512270D02*
X9348753Y-10436079D01*
X9348753Y-10436079D02*
X9339229Y-10417031D01*
X9339229Y-10417031D02*
X9329705Y-10407508D01*
X9329705Y-10407508D02*
X9310658Y-10397984D01*
X9310658Y-10397984D02*
X9272563Y-10397984D01*
X9272563Y-10397984D02*
X9253515Y-10407508D01*
X9253515Y-10407508D02*
X9243991Y-10417031D01*
X9243991Y-10417031D02*
X9234467Y-10436079D01*
X9234467Y-10436079D02*
X9234467Y-10483698D01*
X9234467Y-10483698D02*
X9243991Y-10502746D01*
X9243991Y-10502746D02*
X9253515Y-10512270D01*
X9253515Y-10512270D02*
X9272563Y-10521793D01*
X9272563Y-10521793D02*
X9310658Y-10521793D01*
X9310658Y-10521793D02*
X9329705Y-10512270D01*
X9329705Y-10512270D02*
X9339229Y-10502746D01*
X9339229Y-10502746D02*
X9348753Y-10483698D01*
X9529705Y-10397984D02*
X9434467Y-10397984D01*
X9434467Y-10397984D02*
X9424944Y-10493222D01*
X9424944Y-10493222D02*
X9434467Y-10483698D01*
X9434467Y-10483698D02*
X9453515Y-10474174D01*
X9453515Y-10474174D02*
X9501134Y-10474174D01*
X9501134Y-10474174D02*
X9520182Y-10483698D01*
X9520182Y-10483698D02*
X9529705Y-10493222D01*
X9529705Y-10493222D02*
X9539229Y-10512270D01*
X9539229Y-10512270D02*
X9539229Y-10559889D01*
X9539229Y-10559889D02*
X9529705Y-10578936D01*
X9529705Y-10578936D02*
X9520182Y-10588460D01*
X9520182Y-10588460D02*
X9501134Y-10597984D01*
X9501134Y-10597984D02*
X9453515Y-10597984D01*
X9453515Y-10597984D02*
X9434467Y-10588460D01*
X9434467Y-10588460D02*
X9424944Y-10578936D01*
X9663039Y-10397984D02*
X9682086Y-10397984D01*
X9682086Y-10397984D02*
X9701134Y-10407508D01*
X9701134Y-10407508D02*
X9710658Y-10417031D01*
X9710658Y-10417031D02*
X9720182Y-10436079D01*
X9720182Y-10436079D02*
X9729705Y-10474174D01*
X9729705Y-10474174D02*
X9729705Y-10521793D01*
X9729705Y-10521793D02*
X9720182Y-10559889D01*
X9720182Y-10559889D02*
X9710658Y-10578936D01*
X9710658Y-10578936D02*
X9701134Y-10588460D01*
X9701134Y-10588460D02*
X9682086Y-10597984D01*
X9682086Y-10597984D02*
X9663039Y-10597984D01*
X9663039Y-10597984D02*
X9643991Y-10588460D01*
X9643991Y-10588460D02*
X9634467Y-10578936D01*
X9634467Y-10578936D02*
X9624944Y-10559889D01*
X9624944Y-10559889D02*
X9615420Y-10521793D01*
X9615420Y-10521793D02*
X9615420Y-10474174D01*
X9615420Y-10474174D02*
X9624944Y-10436079D01*
X9624944Y-10436079D02*
X9634467Y-10417031D01*
X9634467Y-10417031D02*
X9643991Y-10407508D01*
X9643991Y-10407508D02*
X9663039Y-10397984D01*
X9815420Y-10597984D02*
X9815420Y-10464650D01*
X9815420Y-10483698D02*
X9824944Y-10474174D01*
X9824944Y-10474174D02*
X9843991Y-10464650D01*
X9843991Y-10464650D02*
X9872563Y-10464650D01*
X9872563Y-10464650D02*
X9891610Y-10474174D01*
X9891610Y-10474174D02*
X9901134Y-10493222D01*
X9901134Y-10493222D02*
X9901134Y-10597984D01*
X9901134Y-10493222D02*
X9910658Y-10474174D01*
X9910658Y-10474174D02*
X9929705Y-10464650D01*
X9929705Y-10464650D02*
X9958277Y-10464650D01*
X9958277Y-10464650D02*
X9977325Y-10474174D01*
X9977325Y-10474174D02*
X9986848Y-10493222D01*
X9986848Y-10493222D02*
X9986848Y-10597984D01*
X10082086Y-10597984D02*
X10082086Y-10464650D01*
X10082086Y-10483698D02*
X10091610Y-10474174D01*
X10091610Y-10474174D02*
X10110658Y-10464650D01*
X10110658Y-10464650D02*
X10139229Y-10464650D01*
X10139229Y-10464650D02*
X10158277Y-10474174D01*
X10158277Y-10474174D02*
X10167801Y-10493222D01*
X10167801Y-10493222D02*
X10167801Y-10597984D01*
X10167801Y-10493222D02*
X10177325Y-10474174D01*
X10177325Y-10474174D02*
X10196372Y-10464650D01*
X10196372Y-10464650D02*
X10224944Y-10464650D01*
X10224944Y-10464650D02*
X10243991Y-10474174D01*
X10243991Y-10474174D02*
X10253515Y-10493222D01*
X10253515Y-10493222D02*
X10253515Y-10597984D01*
X10643991Y-10388460D02*
X10472563Y-10645603D01*
X10901134Y-10397984D02*
X10920182Y-10397984D01*
X10920182Y-10397984D02*
X10939229Y-10407508D01*
X10939229Y-10407508D02*
X10948753Y-10417031D01*
X10948753Y-10417031D02*
X10958277Y-10436079D01*
X10958277Y-10436079D02*
X10967801Y-10474174D01*
X10967801Y-10474174D02*
X10967801Y-10521793D01*
X10967801Y-10521793D02*
X10958277Y-10559889D01*
X10958277Y-10559889D02*
X10948753Y-10578936D01*
X10948753Y-10578936D02*
X10939229Y-10588460D01*
X10939229Y-10588460D02*
X10920182Y-10597984D01*
X10920182Y-10597984D02*
X10901134Y-10597984D01*
X10901134Y-10597984D02*
X10882087Y-10588460D01*
X10882087Y-10588460D02*
X10872563Y-10578936D01*
X10872563Y-10578936D02*
X10863039Y-10559889D01*
X10863039Y-10559889D02*
X10853515Y-10521793D01*
X10853515Y-10521793D02*
X10853515Y-10474174D01*
X10853515Y-10474174D02*
X10863039Y-10436079D01*
X10863039Y-10436079D02*
X10872563Y-10417031D01*
X10872563Y-10417031D02*
X10882087Y-10407508D01*
X10882087Y-10407508D02*
X10901134Y-10397984D01*
X11053515Y-10578936D02*
X11063039Y-10588460D01*
X11063039Y-10588460D02*
X11053515Y-10597984D01*
X11053515Y-10597984D02*
X11043991Y-10588460D01*
X11043991Y-10588460D02*
X11053515Y-10578936D01*
X11053515Y-10578936D02*
X11053515Y-10597984D01*
X11186848Y-10397984D02*
X11205896Y-10397984D01*
X11205896Y-10397984D02*
X11224944Y-10407508D01*
X11224944Y-10407508D02*
X11234467Y-10417031D01*
X11234467Y-10417031D02*
X11243991Y-10436079D01*
X11243991Y-10436079D02*
X11253515Y-10474174D01*
X11253515Y-10474174D02*
X11253515Y-10521793D01*
X11253515Y-10521793D02*
X11243991Y-10559889D01*
X11243991Y-10559889D02*
X11234467Y-10578936D01*
X11234467Y-10578936D02*
X11224944Y-10588460D01*
X11224944Y-10588460D02*
X11205896Y-10597984D01*
X11205896Y-10597984D02*
X11186848Y-10597984D01*
X11186848Y-10597984D02*
X11167801Y-10588460D01*
X11167801Y-10588460D02*
X11158277Y-10578936D01*
X11158277Y-10578936D02*
X11148753Y-10559889D01*
X11148753Y-10559889D02*
X11139229Y-10521793D01*
X11139229Y-10521793D02*
X11139229Y-10474174D01*
X11139229Y-10474174D02*
X11148753Y-10436079D01*
X11148753Y-10436079D02*
X11158277Y-10417031D01*
X11158277Y-10417031D02*
X11167801Y-10407508D01*
X11167801Y-10407508D02*
X11186848Y-10397984D01*
X11320182Y-10397984D02*
X11443991Y-10397984D01*
X11443991Y-10397984D02*
X11377325Y-10474174D01*
X11377325Y-10474174D02*
X11405896Y-10474174D01*
X11405896Y-10474174D02*
X11424944Y-10483698D01*
X11424944Y-10483698D02*
X11434467Y-10493222D01*
X11434467Y-10493222D02*
X11443991Y-10512270D01*
X11443991Y-10512270D02*
X11443991Y-10559889D01*
X11443991Y-10559889D02*
X11434467Y-10578936D01*
X11434467Y-10578936D02*
X11424944Y-10588460D01*
X11424944Y-10588460D02*
X11405896Y-10597984D01*
X11405896Y-10597984D02*
X11348753Y-10597984D01*
X11348753Y-10597984D02*
X11329706Y-10588460D01*
X11329706Y-10588460D02*
X11320182Y-10578936D01*
X11510658Y-10397984D02*
X11643991Y-10397984D01*
X11643991Y-10397984D02*
X11558277Y-10597984D01*
X11805896Y-10464650D02*
X11805896Y-10597984D01*
X11758277Y-10388460D02*
X11710658Y-10531317D01*
X11710658Y-10531317D02*
X11834467Y-10531317D01*
X11901134Y-10397984D02*
X11901134Y-10436079D01*
X11977325Y-10397984D02*
X11977325Y-10436079D01*
X12272563Y-10674174D02*
X12263039Y-10664650D01*
X12263039Y-10664650D02*
X12243991Y-10636079D01*
X12243991Y-10636079D02*
X12234468Y-10617031D01*
X12234468Y-10617031D02*
X12224944Y-10588460D01*
X12224944Y-10588460D02*
X12215420Y-10540841D01*
X12215420Y-10540841D02*
X12215420Y-10502746D01*
X12215420Y-10502746D02*
X12224944Y-10455127D01*
X12224944Y-10455127D02*
X12234468Y-10426555D01*
X12234468Y-10426555D02*
X12243991Y-10407508D01*
X12243991Y-10407508D02*
X12263039Y-10378936D01*
X12263039Y-10378936D02*
X12272563Y-10369412D01*
X12434468Y-10397984D02*
X12396372Y-10397984D01*
X12396372Y-10397984D02*
X12377325Y-10407508D01*
X12377325Y-10407508D02*
X12367801Y-10417031D01*
X12367801Y-10417031D02*
X12348753Y-10445603D01*
X12348753Y-10445603D02*
X12339229Y-10483698D01*
X12339229Y-10483698D02*
X12339229Y-10559889D01*
X12339229Y-10559889D02*
X12348753Y-10578936D01*
X12348753Y-10578936D02*
X12358277Y-10588460D01*
X12358277Y-10588460D02*
X12377325Y-10597984D01*
X12377325Y-10597984D02*
X12415420Y-10597984D01*
X12415420Y-10597984D02*
X12434468Y-10588460D01*
X12434468Y-10588460D02*
X12443991Y-10578936D01*
X12443991Y-10578936D02*
X12453515Y-10559889D01*
X12453515Y-10559889D02*
X12453515Y-10512270D01*
X12453515Y-10512270D02*
X12443991Y-10493222D01*
X12443991Y-10493222D02*
X12434468Y-10483698D01*
X12434468Y-10483698D02*
X12415420Y-10474174D01*
X12415420Y-10474174D02*
X12377325Y-10474174D01*
X12377325Y-10474174D02*
X12358277Y-10483698D01*
X12358277Y-10483698D02*
X12348753Y-10493222D01*
X12348753Y-10493222D02*
X12339229Y-10512270D01*
X12691610Y-10597984D02*
X12691610Y-10397984D01*
X12777325Y-10597984D02*
X12777325Y-10493222D01*
X12777325Y-10493222D02*
X12767801Y-10474174D01*
X12767801Y-10474174D02*
X12748753Y-10464650D01*
X12748753Y-10464650D02*
X12720182Y-10464650D01*
X12720182Y-10464650D02*
X12701134Y-10474174D01*
X12701134Y-10474174D02*
X12691610Y-10483698D01*
X12901134Y-10597984D02*
X12882087Y-10588460D01*
X12882087Y-10588460D02*
X12872563Y-10578936D01*
X12872563Y-10578936D02*
X12863039Y-10559889D01*
X12863039Y-10559889D02*
X12863039Y-10502746D01*
X12863039Y-10502746D02*
X12872563Y-10483698D01*
X12872563Y-10483698D02*
X12882087Y-10474174D01*
X12882087Y-10474174D02*
X12901134Y-10464650D01*
X12901134Y-10464650D02*
X12929706Y-10464650D01*
X12929706Y-10464650D02*
X12948753Y-10474174D01*
X12948753Y-10474174D02*
X12958277Y-10483698D01*
X12958277Y-10483698D02*
X12967801Y-10502746D01*
X12967801Y-10502746D02*
X12967801Y-10559889D01*
X12967801Y-10559889D02*
X12958277Y-10578936D01*
X12958277Y-10578936D02*
X12948753Y-10588460D01*
X12948753Y-10588460D02*
X12929706Y-10597984D01*
X12929706Y-10597984D02*
X12901134Y-10597984D01*
X13082087Y-10597984D02*
X13063039Y-10588460D01*
X13063039Y-10588460D02*
X13053515Y-10569412D01*
X13053515Y-10569412D02*
X13053515Y-10397984D01*
X13234468Y-10588460D02*
X13215420Y-10597984D01*
X13215420Y-10597984D02*
X13177325Y-10597984D01*
X13177325Y-10597984D02*
X13158277Y-10588460D01*
X13158277Y-10588460D02*
X13148753Y-10569412D01*
X13148753Y-10569412D02*
X13148753Y-10493222D01*
X13148753Y-10493222D02*
X13158277Y-10474174D01*
X13158277Y-10474174D02*
X13177325Y-10464650D01*
X13177325Y-10464650D02*
X13215420Y-10464650D01*
X13215420Y-10464650D02*
X13234468Y-10474174D01*
X13234468Y-10474174D02*
X13243991Y-10493222D01*
X13243991Y-10493222D02*
X13243991Y-10512270D01*
X13243991Y-10512270D02*
X13148753Y-10531317D01*
X13320182Y-10588460D02*
X13339230Y-10597984D01*
X13339230Y-10597984D02*
X13377325Y-10597984D01*
X13377325Y-10597984D02*
X13396372Y-10588460D01*
X13396372Y-10588460D02*
X13405896Y-10569412D01*
X13405896Y-10569412D02*
X13405896Y-10559889D01*
X13405896Y-10559889D02*
X13396372Y-10540841D01*
X13396372Y-10540841D02*
X13377325Y-10531317D01*
X13377325Y-10531317D02*
X13348753Y-10531317D01*
X13348753Y-10531317D02*
X13329706Y-10521793D01*
X13329706Y-10521793D02*
X13320182Y-10502746D01*
X13320182Y-10502746D02*
X13320182Y-10493222D01*
X13320182Y-10493222D02*
X13329706Y-10474174D01*
X13329706Y-10474174D02*
X13348753Y-10464650D01*
X13348753Y-10464650D02*
X13377325Y-10464650D01*
X13377325Y-10464650D02*
X13396372Y-10474174D01*
X13472563Y-10674174D02*
X13482087Y-10664650D01*
X13482087Y-10664650D02*
X13501134Y-10636079D01*
X13501134Y-10636079D02*
X13510658Y-10617031D01*
X13510658Y-10617031D02*
X13520182Y-10588460D01*
X13520182Y-10588460D02*
X13529706Y-10540841D01*
X13529706Y-10540841D02*
X13529706Y-10502746D01*
X13529706Y-10502746D02*
X13520182Y-10455127D01*
X13520182Y-10455127D02*
X13510658Y-10426555D01*
X13510658Y-10426555D02*
X13501134Y-10407508D01*
X13501134Y-10407508D02*
X13482087Y-10378936D01*
X13482087Y-10378936D02*
X13472563Y-10369412D01*
M02*
