%TF.GenerationSoftware,KiCad,Pcbnew,9.0.0-9.0.0-2~ubuntu24.04.1*%
%TF.CreationDate,2025-03-28T20:06:40+01:00*%
%TF.ProjectId,MarstekMonitor,4d617273-7465-46b4-9d6f-6e69746f722e,rev?*%
%TF.SameCoordinates,Original*%
%TF.FileFunction,Legend,Bot*%
%TF.FilePolarity,Positive*%
%FSLAX46Y46*%
G04 Gerber Fmt 4.6, Leading zero omitted, Abs format (unit mm)*
G04 Created by KiCad (PCBNEW 9.0.0-9.0.0-2~ubuntu24.04.1) date 2025-03-28 20:06:40*
%MOMM*%
%LPD*%
G01*
G04 APERTURE LIST*
G04 Aperture macros list*
%AMRoundRect*
0 Rectangle with rounded corners*
0 $1 Rounding radius*
0 $2 $3 $4 $5 $6 $7 $8 $9 X,Y pos of 4 corners*
0 Add a 4 corners polygon primitive as box body*
4,1,4,$2,$3,$4,$5,$6,$7,$8,$9,$2,$3,0*
0 Add four circle primitives for the rounded corners*
1,1,$1+$1,$2,$3*
1,1,$1+$1,$4,$5*
1,1,$1+$1,$6,$7*
1,1,$1+$1,$8,$9*
0 Add four rect primitives between the rounded corners*
20,1,$1+$1,$2,$3,$4,$5,0*
20,1,$1+$1,$4,$5,$6,$7,0*
20,1,$1+$1,$6,$7,$8,$9,0*
20,1,$1+$1,$8,$9,$2,$3,0*%
G04 Aperture macros list end*
%ADD10C,0.100000*%
%ADD11C,1.524000*%
%ADD12C,3.200000*%
%ADD13C,1.200000*%
%ADD14RoundRect,0.250000X-0.725000X0.600000X-0.725000X-0.600000X0.725000X-0.600000X0.725000X0.600000X0*%
%ADD15O,1.950000X1.700000*%
G04 APERTURE END LIST*
D10*
X114333332Y-78042580D02*
X113999999Y-78518771D01*
X113761904Y-78042580D02*
X113761904Y-79042580D01*
X113761904Y-79042580D02*
X114142856Y-79042580D01*
X114142856Y-79042580D02*
X114238094Y-78994961D01*
X114238094Y-78994961D02*
X114285713Y-78947342D01*
X114285713Y-78947342D02*
X114333332Y-78852104D01*
X114333332Y-78852104D02*
X114333332Y-78709247D01*
X114333332Y-78709247D02*
X114285713Y-78614009D01*
X114285713Y-78614009D02*
X114238094Y-78566390D01*
X114238094Y-78566390D02*
X114142856Y-78518771D01*
X114142856Y-78518771D02*
X113761904Y-78518771D01*
X114714285Y-78090200D02*
X114857142Y-78042580D01*
X114857142Y-78042580D02*
X115095237Y-78042580D01*
X115095237Y-78042580D02*
X115190475Y-78090200D01*
X115190475Y-78090200D02*
X115238094Y-78137819D01*
X115238094Y-78137819D02*
X115285713Y-78233057D01*
X115285713Y-78233057D02*
X115285713Y-78328295D01*
X115285713Y-78328295D02*
X115238094Y-78423533D01*
X115238094Y-78423533D02*
X115190475Y-78471152D01*
X115190475Y-78471152D02*
X115095237Y-78518771D01*
X115095237Y-78518771D02*
X114904761Y-78566390D01*
X114904761Y-78566390D02*
X114809523Y-78614009D01*
X114809523Y-78614009D02*
X114761904Y-78661628D01*
X114761904Y-78661628D02*
X114714285Y-78756866D01*
X114714285Y-78756866D02*
X114714285Y-78852104D01*
X114714285Y-78852104D02*
X114761904Y-78947342D01*
X114761904Y-78947342D02*
X114809523Y-78994961D01*
X114809523Y-78994961D02*
X114904761Y-79042580D01*
X114904761Y-79042580D02*
X115142856Y-79042580D01*
X115142856Y-79042580D02*
X115285713Y-78994961D01*
X116142856Y-78709247D02*
X116142856Y-78042580D01*
X115904761Y-79090200D02*
X115666666Y-78375914D01*
X115666666Y-78375914D02*
X116285713Y-78375914D01*
X116809523Y-78614009D02*
X116714285Y-78661628D01*
X116714285Y-78661628D02*
X116666666Y-78709247D01*
X116666666Y-78709247D02*
X116619047Y-78804485D01*
X116619047Y-78804485D02*
X116619047Y-78852104D01*
X116619047Y-78852104D02*
X116666666Y-78947342D01*
X116666666Y-78947342D02*
X116714285Y-78994961D01*
X116714285Y-78994961D02*
X116809523Y-79042580D01*
X116809523Y-79042580D02*
X116999999Y-79042580D01*
X116999999Y-79042580D02*
X117095237Y-78994961D01*
X117095237Y-78994961D02*
X117142856Y-78947342D01*
X117142856Y-78947342D02*
X117190475Y-78852104D01*
X117190475Y-78852104D02*
X117190475Y-78804485D01*
X117190475Y-78804485D02*
X117142856Y-78709247D01*
X117142856Y-78709247D02*
X117095237Y-78661628D01*
X117095237Y-78661628D02*
X116999999Y-78614009D01*
X116999999Y-78614009D02*
X116809523Y-78614009D01*
X116809523Y-78614009D02*
X116714285Y-78566390D01*
X116714285Y-78566390D02*
X116666666Y-78518771D01*
X116666666Y-78518771D02*
X116619047Y-78423533D01*
X116619047Y-78423533D02*
X116619047Y-78233057D01*
X116619047Y-78233057D02*
X116666666Y-78137819D01*
X116666666Y-78137819D02*
X116714285Y-78090200D01*
X116714285Y-78090200D02*
X116809523Y-78042580D01*
X116809523Y-78042580D02*
X116999999Y-78042580D01*
X116999999Y-78042580D02*
X117095237Y-78090200D01*
X117095237Y-78090200D02*
X117142856Y-78137819D01*
X117142856Y-78137819D02*
X117190475Y-78233057D01*
X117190475Y-78233057D02*
X117190475Y-78423533D01*
X117190475Y-78423533D02*
X117142856Y-78518771D01*
X117142856Y-78518771D02*
X117095237Y-78566390D01*
X117095237Y-78566390D02*
X116999999Y-78614009D01*
X118095237Y-79042580D02*
X117619047Y-79042580D01*
X117619047Y-79042580D02*
X117571428Y-78566390D01*
X117571428Y-78566390D02*
X117619047Y-78614009D01*
X117619047Y-78614009D02*
X117714285Y-78661628D01*
X117714285Y-78661628D02*
X117952380Y-78661628D01*
X117952380Y-78661628D02*
X118047618Y-78614009D01*
X118047618Y-78614009D02*
X118095237Y-78566390D01*
X118095237Y-78566390D02*
X118142856Y-78471152D01*
X118142856Y-78471152D02*
X118142856Y-78233057D01*
X118142856Y-78233057D02*
X118095237Y-78137819D01*
X118095237Y-78137819D02*
X118047618Y-78090200D01*
X118047618Y-78090200D02*
X117952380Y-78042580D01*
X117952380Y-78042580D02*
X117714285Y-78042580D01*
X117714285Y-78042580D02*
X117619047Y-78090200D01*
X117619047Y-78090200D02*
X117571428Y-78137819D01*
X118333333Y-77947342D02*
X119095237Y-77947342D01*
X119190476Y-79042580D02*
X119761904Y-79042580D01*
X119476190Y-78042580D02*
X119476190Y-79042580D01*
X119952381Y-79042580D02*
X120523809Y-79042580D01*
X120238095Y-78042580D02*
X120238095Y-79042580D01*
X121333333Y-78042580D02*
X120857143Y-78042580D01*
X120857143Y-78042580D02*
X120857143Y-79042580D01*
X121428572Y-77947342D02*
X122190476Y-77947342D01*
X122761905Y-78566390D02*
X122904762Y-78518771D01*
X122904762Y-78518771D02*
X122952381Y-78471152D01*
X122952381Y-78471152D02*
X123000000Y-78375914D01*
X123000000Y-78375914D02*
X123000000Y-78233057D01*
X123000000Y-78233057D02*
X122952381Y-78137819D01*
X122952381Y-78137819D02*
X122904762Y-78090200D01*
X122904762Y-78090200D02*
X122809524Y-78042580D01*
X122809524Y-78042580D02*
X122428572Y-78042580D01*
X122428572Y-78042580D02*
X122428572Y-79042580D01*
X122428572Y-79042580D02*
X122761905Y-79042580D01*
X122761905Y-79042580D02*
X122857143Y-78994961D01*
X122857143Y-78994961D02*
X122904762Y-78947342D01*
X122904762Y-78947342D02*
X122952381Y-78852104D01*
X122952381Y-78852104D02*
X122952381Y-78756866D01*
X122952381Y-78756866D02*
X122904762Y-78661628D01*
X122904762Y-78661628D02*
X122857143Y-78614009D01*
X122857143Y-78614009D02*
X122761905Y-78566390D01*
X122761905Y-78566390D02*
X122428572Y-78566390D01*
X123571429Y-78042580D02*
X123476191Y-78090200D01*
X123476191Y-78090200D02*
X123428572Y-78137819D01*
X123428572Y-78137819D02*
X123380953Y-78233057D01*
X123380953Y-78233057D02*
X123380953Y-78518771D01*
X123380953Y-78518771D02*
X123428572Y-78614009D01*
X123428572Y-78614009D02*
X123476191Y-78661628D01*
X123476191Y-78661628D02*
X123571429Y-78709247D01*
X123571429Y-78709247D02*
X123714286Y-78709247D01*
X123714286Y-78709247D02*
X123809524Y-78661628D01*
X123809524Y-78661628D02*
X123857143Y-78614009D01*
X123857143Y-78614009D02*
X123904762Y-78518771D01*
X123904762Y-78518771D02*
X123904762Y-78233057D01*
X123904762Y-78233057D02*
X123857143Y-78137819D01*
X123857143Y-78137819D02*
X123809524Y-78090200D01*
X123809524Y-78090200D02*
X123714286Y-78042580D01*
X123714286Y-78042580D02*
X123571429Y-78042580D01*
X124761905Y-78042580D02*
X124761905Y-78566390D01*
X124761905Y-78566390D02*
X124714286Y-78661628D01*
X124714286Y-78661628D02*
X124619048Y-78709247D01*
X124619048Y-78709247D02*
X124428572Y-78709247D01*
X124428572Y-78709247D02*
X124333334Y-78661628D01*
X124761905Y-78090200D02*
X124666667Y-78042580D01*
X124666667Y-78042580D02*
X124428572Y-78042580D01*
X124428572Y-78042580D02*
X124333334Y-78090200D01*
X124333334Y-78090200D02*
X124285715Y-78185438D01*
X124285715Y-78185438D02*
X124285715Y-78280676D01*
X124285715Y-78280676D02*
X124333334Y-78375914D01*
X124333334Y-78375914D02*
X124428572Y-78423533D01*
X124428572Y-78423533D02*
X124666667Y-78423533D01*
X124666667Y-78423533D02*
X124761905Y-78471152D01*
X125238096Y-78042580D02*
X125238096Y-78709247D01*
X125238096Y-78518771D02*
X125285715Y-78614009D01*
X125285715Y-78614009D02*
X125333334Y-78661628D01*
X125333334Y-78661628D02*
X125428572Y-78709247D01*
X125428572Y-78709247D02*
X125523810Y-78709247D01*
X126285715Y-78042580D02*
X126285715Y-79042580D01*
X126285715Y-78090200D02*
X126190477Y-78042580D01*
X126190477Y-78042580D02*
X126000001Y-78042580D01*
X126000001Y-78042580D02*
X125904763Y-78090200D01*
X125904763Y-78090200D02*
X125857144Y-78137819D01*
X125857144Y-78137819D02*
X125809525Y-78233057D01*
X125809525Y-78233057D02*
X125809525Y-78518771D01*
X125809525Y-78518771D02*
X125857144Y-78614009D01*
X125857144Y-78614009D02*
X125904763Y-78661628D01*
X125904763Y-78661628D02*
X126000001Y-78709247D01*
X126000001Y-78709247D02*
X126190477Y-78709247D01*
X126190477Y-78709247D02*
X126285715Y-78661628D01*
X127285715Y-78042580D02*
X126714287Y-78042580D01*
X127000001Y-78042580D02*
X127000001Y-79042580D01*
X127000001Y-79042580D02*
X126904763Y-78899723D01*
X126904763Y-78899723D02*
X126809525Y-78804485D01*
X126809525Y-78804485D02*
X126714287Y-78756866D01*
%TO.C,RS485_TTL_Board1*%
X100500000Y-86080000D02*
X143500000Y-86080000D01*
X143500000Y-71080000D01*
X100500000Y-71080000D01*
X100500000Y-86080000D01*
%TD*%
%LPC*%
D11*
%TO.C,RS485_TTL_Board1*%
X141500000Y-74765000D03*
X141500000Y-77305000D03*
X141500000Y-79845000D03*
X141500000Y-82385000D03*
X102000000Y-73500000D03*
X102000000Y-78580000D03*
X102000000Y-83660000D03*
%TD*%
D12*
%TO.C,H1*%
X90500000Y-66000000D03*
%TD*%
%TO.C,H2*%
X90500000Y-92500000D03*
%TD*%
D11*
%TO.C,BuckBoostModuleFixed5V1*%
X125500000Y-72500000D03*
X117500000Y-72500000D03*
X125500000Y-86000000D03*
X117500000Y-86000000D03*
%TD*%
D12*
%TO.C,H3*%
X153500000Y-66000000D03*
%TD*%
%TO.C,H4*%
X153500000Y-92500000D03*
%TD*%
D13*
%TO.C,J1*%
X91000000Y-71400000D03*
D14*
X93000000Y-73000000D03*
D15*
X93000000Y-75500000D03*
X93000000Y-78000000D03*
X93000000Y-80500000D03*
X93000000Y-83000000D03*
X93000000Y-85500000D03*
%TD*%
D11*
%TO.C,TTGO1*%
X116500000Y-67500000D03*
X119040000Y-67500000D03*
X121580000Y-67500000D03*
X124120000Y-67500000D03*
X126660000Y-67500000D03*
X129200000Y-67500000D03*
X131740000Y-67500000D03*
X134280000Y-67500000D03*
X136820000Y-67500000D03*
X139360000Y-67500000D03*
X141900000Y-67500000D03*
X144440000Y-67500000D03*
X144440000Y-90360000D03*
X141900000Y-90360000D03*
X139360000Y-90360000D03*
X136820000Y-90360000D03*
X134280000Y-90360000D03*
X131740000Y-90360000D03*
X129200000Y-90360000D03*
X126660000Y-90360000D03*
X124120000Y-90360000D03*
X121580000Y-90360000D03*
X119040000Y-90360000D03*
X116500000Y-90360000D03*
X147615000Y-89090000D03*
X147615000Y-68770000D03*
%TD*%
%LPD*%
M02*
