M48
; DRILL file {KiCad 9.0.0-9.0.0-2~ubuntu24.04.1} date 2025-03-28T20:08:04+0100
; FORMAT={-:-/ absolute / metric / decimal}
; #@! TF.CreationDate,2025-03-28T20:08:04+01:00
; #@! TF.GenerationSoftware,Kicad,Pcbnew,9.0.0-9.0.0-2~ubuntu24.04.1
; #@! TF.FileFunction,Plated,1,2,PTH
FMAT,2
METRIC
; #@! TA.AperFunction,Plated,PTH,ComponentDrill
T1C0.762
; #@! TA.AperFunction,Plated,PTH,ComponentDrill
T2C0.950
%
G90
G05
T1
X102.0Y-73.5
X102.0Y-78.58
X102.0Y-83.66
X116.5Y-67.5
X116.5Y-90.36
X117.5Y-72.5
X117.5Y-86.0
X119.04Y-67.5
X119.04Y-90.36
X121.58Y-67.5
X121.58Y-90.36
X124.12Y-67.5
X124.12Y-90.36
X125.5Y-72.5
X125.5Y-86.0
X126.66Y-67.5
X126.66Y-90.36
X129.2Y-67.5
X129.2Y-90.36
X131.74Y-67.5
X131.74Y-90.36
X134.28Y-67.5
X134.28Y-90.36
X136.82Y-67.5
X136.82Y-90.36
X139.36Y-67.5
X139.36Y-90.36
X141.5Y-74.765
X141.5Y-77.305
X141.5Y-79.845
X141.5Y-82.385
X141.9Y-67.5
X141.9Y-90.36
X144.44Y-67.5
X144.44Y-90.36
T2
X93.0Y-73.0
X93.0Y-75.5
X93.0Y-78.0
X93.0Y-80.5
X93.0Y-83.0
X93.0Y-85.5
M30
