%TF.GenerationSoftware,KiCad,Pcbnew,9.0.0-9.0.0-2~ubuntu24.04.1*%
%TF.CreationDate,2025-03-28T20:06:40+01:00*%
%TF.ProjectId,MarstekMonitor,4d617273-7465-46b4-9d6f-6e69746f722e,rev?*%
%TF.SameCoordinates,Original*%
%TF.FileFunction,Soldermask,Bot*%
%TF.FilePolarity,Negative*%
%FSLAX46Y46*%
G04 Gerber Fmt 4.6, Leading zero omitted, Abs format (unit mm)*
G04 Created by KiCad (PCBNEW 9.0.0-9.0.0-2~ubuntu24.04.1) date 2025-03-28 20:06:40*
%MOMM*%
%LPD*%
G01*
G04 APERTURE LIST*
G04 Aperture macros list*
%AMRoundRect*
0 Rectangle with rounded corners*
0 $1 Rounding radius*
0 $2 $3 $4 $5 $6 $7 $8 $9 X,Y pos of 4 corners*
0 Add a 4 corners polygon primitive as box body*
4,1,4,$2,$3,$4,$5,$6,$7,$8,$9,$2,$3,0*
0 Add four circle primitives for the rounded corners*
1,1,$1+$1,$2,$3*
1,1,$1+$1,$4,$5*
1,1,$1+$1,$6,$7*
1,1,$1+$1,$8,$9*
0 Add four rect primitives between the rounded corners*
20,1,$1+$1,$2,$3,$4,$5,0*
20,1,$1+$1,$4,$5,$6,$7,0*
20,1,$1+$1,$6,$7,$8,$9,0*
20,1,$1+$1,$8,$9,$2,$3,0*%
G04 Aperture macros list end*
%ADD10C,1.524000*%
%ADD11C,3.200000*%
%ADD12C,1.200000*%
%ADD13RoundRect,0.250000X-0.725000X0.600000X-0.725000X-0.600000X0.725000X-0.600000X0.725000X0.600000X0*%
%ADD14O,1.950000X1.700000*%
G04 APERTURE END LIST*
D10*
%TO.C,RS485_TTL_Board1*%
X141500000Y-74765000D03*
X141500000Y-77305000D03*
X141500000Y-79845000D03*
X141500000Y-82385000D03*
X102000000Y-73500000D03*
X102000000Y-78580000D03*
X102000000Y-83660000D03*
%TD*%
D11*
%TO.C,H1*%
X90500000Y-66000000D03*
%TD*%
%TO.C,H2*%
X90500000Y-92500000D03*
%TD*%
D10*
%TO.C,BuckBoostModuleFixed5V1*%
X125500000Y-72500000D03*
X117500000Y-72500000D03*
X125500000Y-86000000D03*
X117500000Y-86000000D03*
%TD*%
D11*
%TO.C,H3*%
X153500000Y-66000000D03*
%TD*%
%TO.C,H4*%
X153500000Y-92500000D03*
%TD*%
D12*
%TO.C,J1*%
X91000000Y-71400000D03*
D13*
X93000000Y-73000000D03*
D14*
X93000000Y-75500000D03*
X93000000Y-78000000D03*
X93000000Y-80500000D03*
X93000000Y-83000000D03*
X93000000Y-85500000D03*
%TD*%
D10*
%TO.C,TTGO1*%
X116500000Y-67500000D03*
X119040000Y-67500000D03*
X121580000Y-67500000D03*
X124120000Y-67500000D03*
X126660000Y-67500000D03*
X129200000Y-67500000D03*
X131740000Y-67500000D03*
X134280000Y-67500000D03*
X136820000Y-67500000D03*
X139360000Y-67500000D03*
X141900000Y-67500000D03*
X144440000Y-67500000D03*
X144440000Y-90360000D03*
X141900000Y-90360000D03*
X139360000Y-90360000D03*
X136820000Y-90360000D03*
X134280000Y-90360000D03*
X131740000Y-90360000D03*
X129200000Y-90360000D03*
X126660000Y-90360000D03*
X124120000Y-90360000D03*
X121580000Y-90360000D03*
X119040000Y-90360000D03*
X116500000Y-90360000D03*
X147615000Y-89090000D03*
X147615000Y-68770000D03*
%TD*%
M02*
